nColumns=28
nRows=60
DataType=double
version=3
OpenSimVersion=4.1
endheader
time	ground_force_1_vx	ground_force_1_vy	ground_force_1_vz	ground_force_1_px	ground_force_1_py	ground_force_1_pz	ground_force_1_mx	ground_force_1_my	ground_force_1_mz	ground_force_2_vx	ground_force_2_vy	ground_force_2_vz	ground_force_2_px	ground_force_2_py	ground_force_2_pz	ground_force_2_mx	ground_force_2_my	ground_force_2_mz	ground_force_3_vx	ground_force_3_vy	ground_force_3_vz	ground_force_3_px	ground_force_3_py	ground_force_3_pz	ground_force_3_mx	ground_force_3_my	ground_force_3_mz
0	-4.15761	301.301	-35.7899	-0.202831	0.006	-0.387421	0	-2.08023	0	5.71665	483.694	69.8069	-0.228043	0.006	-0.878545	0	-0.098115	0	0	0	0	0	0	0	0	0	0
0.01	-4.84265	295.721	-34.4713	-0.201505	0.006	-0.3875	0	-2.12556	0	5.82679	482.215	69.4742	-0.228584	0.006	-0.878549	0	-0.151052	0	0	0	0	0	0	0	0	0	0
0.02	-5.74579	289.746	-33.1003	-0.199845	0.006	-0.387542	0	-2.17504	0	5.87821	479.9	69.0129	-0.229192	0.006	-0.878542	0	-0.210774	0	0	0	0	0	0	0	0	0	0
0.03	-6.88947	283.59	-31.7404	-0.197823	0.006	-0.387532	0	-2.22709	0	5.84368	476.593	68.4085	-0.229857	0.006	-0.878524	0	-0.276061	0	0	0	0	0	0	0	0	0	0
0.04	-8.28359	277.508	-30.461	-0.19543	0.006	-0.38746	0	-2.27964	0	5.69604	472.169	67.6545	-0.230568	0.006	-0.878495	0	-0.345109	0	0	0	0	0	0	0	0	0	0
0.05	-9.92199	271.788	-29.3331	-0.192683	0.006	-0.387319	0	-2.33037	0	5.41095	466.564	66.7559	-0.231314	0.006	-0.878457	0	-0.415719	0	0	0	0	0	0	0	0	0	0
0.06	-11.7839	266.747	-28.4266	-0.189631	0.006	-0.387104	0	-2.37693	0	4.96791	459.792	65.7296	-0.232086	0.006	-0.878411	0	-0.485317	0	0	0	0	0	0	0	0	0	0
0.07	-13.8372	262.724	-27.806	-0.186357	0.006	-0.386821	0	-2.41723	0	4.35089	451.96	64.605	-0.232878	0.006	-0.878358	0	-0.551098	0	0	0	0	0	0	0	0	0	0
0.08	-16.0403	260.069	-27.526	-0.182976	0.006	-0.386479	0	-2.44957	0	3.5509	443.27	63.4216	-0.233685	0.006	-0.8783	0	-0.610095	0	0	0	0	0	0	0	0	0	0
0.09	-18.3405	259.106	-27.6239	-0.179628	0.006	-0.386095	0	-2.47301	0	2.57023	434.017	62.2259	-0.234514	0.006	-0.878235	0	-0.659127	0	0	0	0	0	0	0	0	0	0
0.1	-20.6739	260.11	-28.1133	-0.176468	0.006	-0.385694	0	-2.4878	0	1.42671	424.571	61.0662	-0.235378	0.006	-0.878158	0	-0.694774	0	0	0	0	0	0	0	0	0	0
0.11	-22.9661	263.259	-28.9798	-0.173642	0.006	-0.385308	0	-2.49575	0	0.157361	415.352	59.9868	-0.236304	0.006	-0.878062	0	-0.713466	0	0	0	0	0	0	0	0	0	0
0.12	-25.1314	268.611	-30.1775	-0.171273	0.006	-0.384968	0	-2.50037	0	-1.17911	406.791	59.0221	-0.237325	0.006	-0.877932	0	-0.711588	0	0	0	0	0	0	0	0	0	0
0.13	-27.0772	276.081	-31.6331	-0.169438	0.006	-0.384701	0	-2.50663	0	-2.50144	399.271	58.1891	-0.23848	0.006	-0.877756	0	-0.68561	0	0	0	0	0	0	0	0	0	0
0.14	-28.7129	285.453	-33.2558	-0.168165	0.006	-0.384527	0	-2.5205	0	-3.7102	393.078	57.4845	-0.23981	0.006	-0.877518	0	-0.632294	0	0	0	0	0	0	0	0	0	0
0.15	-29.9605	296.39	-34.9459	-0.167426	0.006	-0.384451	0	-2.5482	0	-4.70008	388.378	56.8893	-0.241356	0.006	-0.877204	0	-0.549242	0	0	0	0	0	0	0	0	0	0
0.16	-30.7583	308.455	-36.6027	-0.16715	0.006	-0.384467	0	-2.59577	0	-5.37898	385.221	56.3817	-0.243146	0.006	-0.876805	0	-0.43535	0	0	0	0	0	0	0	0	0	0
0.17	-31.069	321.129	-38.1332	-0.167232	0.006	-0.384558	0	-2.66848	0	-5.69044	383.589	55.9498	-0.245199	0.006	-0.876319	0	-0.291025	0	0	0	0	0	0	0	0	0	0
0.18	-30.8896	333.835	-39.4595	-0.167541	0.006	-0.384697	0	-2.77057	0	-5.62343	383.424	55.5986	-0.247517	0.006	-0.875747	0	-0.118063	0	0	0	0	0	0	0	0	0	0
0.19	-30.2613	345.971	-40.5245	-0.167937	0.006	-0.384852	0	-2.90526	0	-5.20288	384.66	55.3476	-0.250084	0.006	-0.875097	0	0.080818	0	0	0	0	0	0	0	0	0	0
0.2	-29.2712	356.943	-41.2931	-0.168276	0.006	-0.384986	0	-3.07456	0	-4.46471	387.194	55.219	-0.252876	0.006	-0.874379	0	0.302645	0	0	0	0	0	0	0	0	0	0
0.21	-28.0442	366.203	-41.7492	-0.168422	0.006	-0.385067	0	-3.27909	0	-3.43272	390.843	55.2216	-0.255862	0.006	-0.873606	0	0.54476	0	0	0	0	0	0	0	0	0	0
0.22	-26.7234	373.299	-41.8921	-0.168256	0.006	-0.385063	0	-3.518	0	-2.11897	395.333	55.3501	-0.259009	0.006	-0.872791	0	0.805084	0	0	0	0	0	0	0	0	0	0
0.23	-25.4448	377.926	-41.7327	-0.167688	0.006	-0.384953	0	-3.78892	0	-0.539914	400.327	55.5923	-0.262282	0.006	-0.871948	0	1.08216	0	0	0	0	0	0	0	0	0	0
0.24	-24.3157	379.971	-41.2923	-0.166673	0.006	-0.384725	0	-4.08808	0	1.27051	405.457	55.9344	-0.265639	0.006	-0.871092	0	1.37478	0	0	0	0	0	0	0	0	0	0
0.25	-23.4004	379.536	-40.6046	-0.16522	0.006	-0.384379	0	-4.41	0	3.25703	410.358	56.3616	-0.269039	0.006	-0.870236	0	1.68157	0	0	0	0	0	0	0	0	0	0
0.26	-22.7152	376.919	-39.7157	-0.1634	0.006	-0.383929	0	-4.74718	0	5.34725	414.699	56.8576	-0.272434	0.006	-0.869394	0	2.00029	0	0	0	0	0	0	0	0	0	0
0.27	-22.2338	372.555	-38.6803	-0.161338	0.006	-0.383402	0	-5.08997	0	7.45593	418.215	57.4076	-0.275774	0.006	-0.868578	0	2.32722	0	0	0	0	0	0	0	0	0	0
0.28	-21.9015	366.955	-37.5564	-0.159211	0.006	-0.382836	0	-5.42684	0	9.48958	420.716	57.9985	-0.279006	0.006	-0.867799	0	2.65676	0	0	0	0	0	0	0	0	0	0
0.29	-21.6478	360.658	-36.4011	-0.157238	0.006	-0.382279	0	-5.74471	0	11.3548	422.064	58.6072	-0.282075	0.006	-0.867068	0	2.98151	0	0	0	0	0	0	0	0	0	0
0.3	-21.3895	354.199	-35.268	-0.155674	0.006	-0.381789	0	-6.02957	0	12.9733	422.112	59.1832	-0.284936	0.006	-0.86639	0	3.29256	0	0	0	0	0	0	0	0	0	0
0.31	-21.0305	348.083	-34.2042	-0.154802	0.006	-0.381428	0	-6.26709	0	14.2978	420.65	59.6341	-0.287556	0.006	-0.865766	0	3.57965	0	0	0	0	0	0	0	0	0	0
0.32	-20.4637	342.775	-33.2458	-0.154909	0.006	-0.381264	0	-6.44344	0	15.3183	417.373	59.8213	-0.289925	0.006	-0.865185	0	3.8315	0	0	0	0	0	0	0	0	0	0
0.33	-19.5787	338.687	-32.4176	-0.156265	0.006	-0.381365	0	-6.5465	0	16.0588	411.896	59.5701	-0.292053	0.006	-0.864632	0	4.03627	0	0	0	0	0	0	0	0	0	0
0.34	-18.2747	336.173	-31.7349	-0.159088	0.006	-0.381791	0	-6.56682	0	16.5639	403.844	58.7037	-0.293962	0.006	-0.864086	0	4.18328	0	0	0	0	0	0	0	0	0	0
0.35	-16.4779	335.519	-31.2051	-0.163511	0.006	-0.382584	0	-6.49859	0	16.881	392.957	57.0835	-0.295687	0.006	-0.863524	0	4.26514	0	0	0	0	0	0	0	0	0	0
0.36	-14.1598	336.955	-30.8315	-0.169551	0.006	-0.383766	0	-6.34056	0	17.0472	379.177	54.6339	-0.297257	0.006	-0.862922	0	4.27905	0	0	0	0	0	0	0	0	0	0
0.37	-11.3472	340.645	-30.6167	-0.1771	0.006	-0.38533	0	-6.0964	0	17.089	362.7	51.3523	-0.2987	0.006	-0.862261	0	4.22699	0	0	0	0	0	0	0	0	0	0
0.38	-8.1193	346.683	-30.5666	-0.18592	0.006	-0.387237	0	-5.77401	0	17.026	343.972	47.3071	-0.30003	0.006	-0.861519	0	4.11493	0	0	0	0	0	0	0	0	0	0
0.39	-4.59397	355.065	-30.6939	-0.195677	0.006	-0.389418	0	-5.38409	0	16.8738	323.649	42.6267	-0.301258	0.006	-0.860679	0	3.95215	0	0	0	0	0	0	0	0	0	0
0.4	-0.911717	365.687	-31.0175	-0.205976	0.006	-0.391789	0	-4.93897	0	16.6441	302.516	37.4839	-0.30238	0.006	-0.859724	0	3.75023	0	0	0	0	0	0	0	0	0	0
0.41	2.78106	378.375	-31.5597	-0.216419	0.006	-0.394253	0	-4.45232	0	16.3432	281.389	32.0752	-0.303386	0.006	-0.858644	0	3.52234	0	0	0	0	0	0	0	0	0	0
0.42	6.34635	392.924	-32.3411	-0.226644	0.006	-0.39672	0	-3.93918	0	15.9723	261.032	26.6008	-0.304257	0.006	-0.857433	0	3.28247	0	0	0	0	0	0	0	0	0	0
0.43	9.66515	409.113	-33.3765	-0.236352	0.006	-0.399114	0	-3.41547	0	15.5307	242.099	21.2467	-0.304965	0.006	-0.856094	0	3.04459	0	0	0	0	0	0	0	0	0	0
0.44	12.6434	426.689	-34.6719	-0.245313	0.006	-0.401372	0	-2.89689	0	15.019	225.122	16.1745	-0.305478	0.006	-0.854641	0	2.82172	0	0	0	0	0	0	0	0	0	0
0.45	15.2131	445.353	-36.2259	-0.253377	0.006	-0.403448	0	-2.39781	0	14.4389	210.511	11.5173	-0.305766	0.006	-0.853102	0	2.62524	0	0	0	0	0	0	0	0	0	0
0.46	17.332	464.775	-38.0284	-0.260464	0.006	-0.405316	0	-1.93046	0	13.7912	198.565	7.38056	-0.305801	0.006	-0.851526	0	2.46425	0	0	0	0	0	0	0	0	0	0
0.47	18.9867	484.634	-40.053	-0.266555	0.006	-0.406964	0	-1.50438	0	13.0725	189.475	3.8447	-0.30557	0.006	-0.849977	0	2.34511	0	0	0	0	0	0	0	0	0	0
0.48	20.1965	504.625	-42.2472	-0.271683	0.006	-0.408394	0	-1.12586	0	12.2767	183.322	0.966776	-0.30508	0.006	-0.848532	0	2.27126	0	0	0	0	0	0	0	0	0	0
0.49	21.0055	524.455	-44.5341	-0.27591	0.006	-0.40962	0	-0.797672	0	11.3995	180.07	-1.22093	-0.30436	0.006	-0.847263	0	2.24324	0	0	0	0	0	0	0	0	0	0
0.5	21.4695	543.821	-46.8203	-0.279323	0.006	-0.410662	0	-0.519193	0	10.4452	179.556	-2.71497	-0.303462	0.006	-0.846223	0	2.25862	0	0	0	0	0	0	0	0	0	0
0.51	21.6437	562.395	-49.008	-0.282014	0.006	-0.411543	0	-0.286809	0	9.43443	181.489	-3.54374	-0.302449	0.006	-0.845433	0	2.31238	0	0	0	0	0	0	0	0	0	0
0.52	21.5764	579.825	-51.0057	-0.284083	0.006	-0.412286	0	-0.094734	0	8.40495	185.487	-3.76524	-0.301386	0.006	-0.844881	0	2.39778	0	0	0	0	0	0	0	0	0	0
0.53	21.3053	595.752	-52.7349	-0.285624	0.006	-0.412914	0	0.064052	0	7.40558	191.14	-3.45716	-0.300327	0.006	-0.844535	0	2.50736	0	0	0	0	0	0	0	0	0	0
0.54	20.8574	609.841	-54.1312	-0.286725	0.006	-0.413448	0	0.196892	0	6.48472	198.055	-2.70384	-0.29931	0.006	-0.84435	0	2.63385	0	0	0	0	0	0	0	0	0	0
0.55	20.2529	621.799	-55.1438	-0.287465	0.006	-0.413907	0	0.310491	0	5.68164	205.887	-1.58745	-0.298353	0.006	-0.844286	0	2.77114	0	0	0	0	0	0	0	0	0	0
0.56	19.5095	631.399	-55.7379	-0.287915	0.006	-0.414308	0	0.41028	0	5.02564	214.335	-0.18491	-0.29746	0.006	-0.844304	0	2.91471	0	0	0	0	0	0	0	0	0	0
0.57	18.6471	638.496	-55.8974	-0.288135	0.006	-0.414665	0	0.500132	0	4.53893	223.147	1.43246	-0.296627	0.006	-0.844373	0	3.06156	0	0	0	0	0	0	0	0	0	0
0.58	17.692	643.045	-55.6227	-0.288178	0.006	-0.41499	0	0.58225	0	4.23644	232.111	3.20141	-0.295843	0.006	-0.844466	0	3.20999	0	0	0	0	0	0	0	0	0	0
0.59	16.6781	645.102	-54.9272	-0.288087	0.006	-0.415292	0	0.65716	0	4.12275	241.056	5.07022	-0.295095	0.006	-0.844567	0	3.35926	0	0	0	0	0	0	0	0	0	0
